<?xml version="1.0" encoding="UTF-8" standalone="no"?>
<!DOCTYPE svg PUBLIC "-//W3C//DTD SVG 1.1//EN"
 "http://www.w3.org/Graphics/SVG/1.1/DTD/svg11.dtd">
<!-- Generated by graphviz version 2.40.1 (20161225.0304)
 -->
<!-- Title: snakemake_dag Pages: 1 -->
<svg width="392pt" height="548pt"
 viewBox="0.00 0.00 391.50 548.00" xmlns="http://www.w3.org/2000/svg" xmlns:xlink="http://www.w3.org/1999/xlink">
<g id="graph0" class="graph" transform="scale(1 1) rotate(0) translate(4 544)">
<title>snakemake_dag</title>
<polygon fill="#ffffff" stroke="transparent" points="-4,4 -4,-544 387.5,-544 387.5,4 -4,4"/>
<!-- 0 -->
<g id="node1" class="node">
<title>0</title>
<path fill="none" stroke="#ced856" stroke-width="2" d="M231.5,-36C231.5,-36 201.5,-36 201.5,-36 195.5,-36 189.5,-30 189.5,-24 189.5,-24 189.5,-12 189.5,-12 189.5,-6 195.5,0 201.5,0 201.5,0 231.5,0 231.5,0 237.5,0 243.5,-6 243.5,-12 243.5,-12 243.5,-24 243.5,-24 243.5,-30 237.5,-36 231.5,-36"/>
<text text-anchor="middle" x="216.5" y="-15.5" font-family="sans" font-size="10.00" fill="#000000">all</text>
</g>
<!-- 1 -->
<g id="node2" class="node">
<title>1</title>
<path fill="none" stroke="#56c1d8" stroke-width="2" d="M270.5,-108C270.5,-108 162.5,-108 162.5,-108 156.5,-108 150.5,-102 150.5,-96 150.5,-96 150.5,-84 150.5,-84 150.5,-78 156.5,-72 162.5,-72 162.5,-72 270.5,-72 270.5,-72 276.5,-72 282.5,-78 282.5,-84 282.5,-84 282.5,-96 282.5,-96 282.5,-102 276.5,-108 270.5,-108"/>
<text text-anchor="middle" x="216.5" y="-87.5" font-family="sans" font-size="10.00" fill="#000000">favorite_gaelle_smooth</text>
</g>
<!-- 1&#45;&gt;0 -->
<g id="edge3" class="edge">
<title>1&#45;&gt;0</title>
<path fill="none" stroke="#c0c0c0" stroke-width="2" d="M216.5,-71.8314C216.5,-64.131 216.5,-54.9743 216.5,-46.4166"/>
<polygon fill="#c0c0c0" stroke="#c0c0c0" stroke-width="2" points="220.0001,-46.4132 216.5,-36.4133 213.0001,-46.4133 220.0001,-46.4132"/>
</g>
<!-- 2 -->
<g id="node3" class="node">
<title>2</title>
<path fill="none" stroke="#56d8a9" stroke-width="2" d="M105,-252C105,-252 12,-252 12,-252 6,-252 0,-246 0,-240 0,-240 0,-228 0,-228 0,-222 6,-216 12,-216 12,-216 105,-216 105,-216 111,-216 117,-222 117,-228 117,-228 117,-240 117,-240 117,-246 111,-252 105,-252"/>
<text text-anchor="middle" x="58.5" y="-231.5" font-family="sans" font-size="10.00" fill="#000000">create_matrix_count</text>
</g>
<!-- 2&#45;&gt;0 -->
<g id="edge2" class="edge">
<title>2&#45;&gt;0</title>
<path fill="none" stroke="#c0c0c0" stroke-width="2" d="M64.5785,-215.8255C75.8787,-184.0059 102.5624,-117.2897 141.5,-72 152.5688,-59.1255 167.3018,-47.6678 180.7785,-38.6554"/>
<polygon fill="#c0c0c0" stroke="#c0c0c0" stroke-width="2" points="182.8938,-41.4561 189.402,-33.0958 179.1007,-35.5727 182.8938,-41.4561"/>
</g>
<!-- 3 -->
<g id="node4" class="node">
<title>3</title>
<path fill="none" stroke="#56d88a" stroke-width="2" d="M371.5,-180C371.5,-180 301.5,-180 301.5,-180 295.5,-180 289.5,-174 289.5,-168 289.5,-168 289.5,-156 289.5,-156 289.5,-150 295.5,-144 301.5,-144 301.5,-144 371.5,-144 371.5,-144 377.5,-144 383.5,-150 383.5,-156 383.5,-156 383.5,-168 383.5,-168 383.5,-174 377.5,-180 371.5,-180"/>
<text text-anchor="middle" x="336.5" y="-159.5" font-family="sans" font-size="10.00" fill="#000000">samtools_index</text>
</g>
<!-- 3&#45;&gt;0 -->
<g id="edge1" class="edge">
<title>3&#45;&gt;0</title>
<path fill="none" stroke="#c0c0c0" stroke-width="2" d="M330.4371,-143.9364C323.3156,-124.6163 310.0705,-93.816 291.5,-72 280.4946,-59.0712 265.7726,-47.6042 252.287,-38.5994"/>
<polygon fill="#c0c0c0" stroke="#c0c0c0" stroke-width="2" points="253.9589,-35.5133 243.6551,-33.047 250.1719,-41.4005 253.9589,-35.5133"/>
</g>
<!-- 4 -->
<g id="node5" class="node">
<title>4</title>
<path fill="none" stroke="#d87556" stroke-width="2" d="M259,-180C259,-180 174,-180 174,-180 168,-180 162,-174 162,-168 162,-168 162,-156 162,-156 162,-150 168,-144 174,-144 174,-144 259,-144 259,-144 265,-144 271,-150 271,-156 271,-156 271,-168 271,-168 271,-174 265,-180 259,-180"/>
<text text-anchor="middle" x="216.5" y="-159.5" font-family="sans" font-size="10.00" fill="#000000">bedGraphToBigWig</text>
</g>
<!-- 4&#45;&gt;1 -->
<g id="edge4" class="edge">
<title>4&#45;&gt;1</title>
<path fill="none" stroke="#c0c0c0" stroke-width="2" d="M216.5,-143.8314C216.5,-136.131 216.5,-126.9743 216.5,-118.4166"/>
<polygon fill="#c0c0c0" stroke="#c0c0c0" stroke-width="2" points="220.0001,-118.4132 216.5,-108.4133 213.0001,-118.4133 220.0001,-118.4132"/>
</g>
<!-- 5 -->
<g id="node6" class="node">
<title>5</title>
<path fill="none" stroke="#88d856" stroke-width="2" d="M257,-396C257,-396 186,-396 186,-396 180,-396 174,-390 174,-384 174,-384 174,-372 174,-372 174,-366 180,-360 186,-360 186,-360 257,-360 257,-360 263,-360 269,-366 269,-372 269,-372 269,-384 269,-384 269,-390 263,-396 257,-396"/>
<text text-anchor="middle" x="221.5" y="-375.5" font-family="sans" font-size="10.00" fill="#000000">make_coverage</text>
</g>
<!-- 5&#45;&gt;2 -->
<g id="edge5" class="edge">
<title>5&#45;&gt;2</title>
<path fill="none" stroke="#c0c0c0" stroke-width="2" d="M183.1155,-359.9965C165.4363,-350.6696 144.812,-338.2466 128.5,-324 107.3921,-305.5648 88.2215,-279.9937 75.3013,-260.8179"/>
<polygon fill="#c0c0c0" stroke="#c0c0c0" stroke-width="2" points="78.0752,-258.6665 69.6502,-252.2423 72.2302,-262.5182 78.0752,-258.6665"/>
</g>
<!-- 10 -->
<g id="node11" class="node">
<title>10</title>
<path fill="none" stroke="#569ad8" stroke-width="2" d="M293,-324C293,-324 150,-324 150,-324 144,-324 138,-318 138,-312 138,-312 138,-300 138,-300 138,-294 144,-288 150,-288 150,-288 293,-288 293,-288 299,-288 305,-294 305,-300 305,-300 305,-312 305,-312 305,-318 299,-324 293,-324"/>
<text text-anchor="middle" x="221.5" y="-303.5" font-family="sans" font-size="10.00" fill="#000000">generate_bedGraph_smoothed</text>
</g>
<!-- 5&#45;&gt;10 -->
<g id="edge13" class="edge">
<title>5&#45;&gt;10</title>
<path fill="none" stroke="#c0c0c0" stroke-width="2" d="M221.5,-359.8314C221.5,-352.131 221.5,-342.9743 221.5,-334.4166"/>
<polygon fill="#c0c0c0" stroke="#c0c0c0" stroke-width="2" points="225.0001,-334.4132 221.5,-324.4133 218.0001,-334.4133 225.0001,-334.4132"/>
</g>
<!-- 6 -->
<g id="node7" class="node">
<title>6</title>
<path fill="none" stroke="#56d86b" stroke-width="2" d="M364.5,-396C364.5,-396 302.5,-396 302.5,-396 296.5,-396 290.5,-390 290.5,-384 290.5,-384 290.5,-372 290.5,-372 290.5,-366 296.5,-360 302.5,-360 302.5,-360 364.5,-360 364.5,-360 370.5,-360 376.5,-366 376.5,-372 376.5,-372 376.5,-384 376.5,-384 376.5,-390 370.5,-396 364.5,-396"/>
<text text-anchor="middle" x="333.5" y="-375.5" font-family="sans" font-size="10.00" fill="#000000">samtools_sort</text>
</g>
<!-- 6&#45;&gt;3 -->
<g id="edge6" class="edge">
<title>6&#45;&gt;3</title>
<path fill="none" stroke="#c0c0c0" stroke-width="2" d="M333.7506,-359.9555C334.2723,-322.3938 335.4784,-235.5541 336.1054,-190.4103"/>
<polygon fill="#c0c0c0" stroke="#c0c0c0" stroke-width="2" points="339.6087,-190.1927 336.248,-180.1451 332.6094,-190.0955 339.6087,-190.1927"/>
</g>
<!-- 7 -->
<g id="node8" class="node">
<title>7</title>
<path fill="none" stroke="#d85656" stroke-width="2" d="M296,-252C296,-252 147,-252 147,-252 141,-252 135,-246 135,-240 135,-240 135,-228 135,-228 135,-222 141,-216 147,-216 147,-216 296,-216 296,-216 302,-216 308,-222 308,-228 308,-228 308,-240 308,-240 308,-246 302,-252 296,-252"/>
<text text-anchor="middle" x="221.5" y="-231.5" font-family="sans" font-size="10.00" fill="#000000">generate_bedGraph_normalized</text>
</g>
<!-- 7&#45;&gt;4 -->
<g id="edge7" class="edge">
<title>7&#45;&gt;4</title>
<path fill="none" stroke="#c0c0c0" stroke-width="2" d="M220.2383,-215.8314C219.7035,-208.131 219.0677,-198.9743 218.4734,-190.4166"/>
<polygon fill="#c0c0c0" stroke="#c0c0c0" stroke-width="2" points="221.9632,-190.1467 217.7787,-180.4133 214.98,-190.6317 221.9632,-190.1467"/>
</g>
<!-- 8 -->
<g id="node9" class="node">
<title>8</title>
<path fill="none" stroke="#d8bc56" stroke-width="2" d="M343.5,-468C343.5,-468 299.5,-468 299.5,-468 293.5,-468 287.5,-462 287.5,-456 287.5,-456 287.5,-444 287.5,-444 287.5,-438 293.5,-432 299.5,-432 299.5,-432 343.5,-432 343.5,-432 349.5,-432 355.5,-438 355.5,-444 355.5,-444 355.5,-456 355.5,-456 355.5,-462 349.5,-468 343.5,-468"/>
<text text-anchor="middle" x="321.5" y="-447.5" font-family="sans" font-size="10.00" fill="#000000">bwa_mem</text>
</g>
<!-- 8&#45;&gt;5 -->
<g id="edge8" class="edge">
<title>8&#45;&gt;5</title>
<path fill="none" stroke="#c0c0c0" stroke-width="2" d="M296.2658,-431.8314C283.712,-422.7927 268.3717,-411.7476 254.8609,-402.0198"/>
<polygon fill="#c0c0c0" stroke="#c0c0c0" stroke-width="2" points="256.8866,-399.1655 246.7261,-396.1628 252.7964,-404.8463 256.8866,-399.1655"/>
</g>
<!-- 8&#45;&gt;6 -->
<g id="edge10" class="edge">
<title>8&#45;&gt;6</title>
<path fill="none" stroke="#c0c0c0" stroke-width="2" d="M324.5281,-431.8314C325.8115,-424.131 327.3376,-414.9743 328.7639,-406.4166"/>
<polygon fill="#c0c0c0" stroke="#c0c0c0" stroke-width="2" points="332.2394,-406.8526 330.4311,-396.4133 325.3347,-405.7018 332.2394,-406.8526"/>
</g>
<!-- 9 -->
<g id="node10" class="node">
<title>9</title>
<path fill="none" stroke="#afd856" stroke-width="2" d="M248,-468C248,-468 195,-468 195,-468 189,-468 183,-462 183,-456 183,-456 183,-444 183,-444 183,-438 189,-432 195,-432 195,-432 248,-432 248,-432 254,-432 260,-438 260,-444 260,-444 260,-456 260,-456 260,-462 254,-468 248,-468"/>
<text text-anchor="middle" x="221.5" y="-447.5" font-family="sans" font-size="10.00" fill="#000000">create_frags</text>
</g>
<!-- 9&#45;&gt;5 -->
<g id="edge9" class="edge">
<title>9&#45;&gt;5</title>
<path fill="none" stroke="#c0c0c0" stroke-width="2" d="M221.5,-431.8314C221.5,-424.131 221.5,-414.9743 221.5,-406.4166"/>
<polygon fill="#c0c0c0" stroke="#c0c0c0" stroke-width="2" points="225.0001,-406.4132 221.5,-396.4133 218.0001,-406.4133 225.0001,-406.4132"/>
</g>
<!-- 10&#45;&gt;7 -->
<g id="edge11" class="edge">
<title>10&#45;&gt;7</title>
<path fill="none" stroke="#c0c0c0" stroke-width="2" d="M221.5,-287.8314C221.5,-280.131 221.5,-270.9743 221.5,-262.4166"/>
<polygon fill="#c0c0c0" stroke="#c0c0c0" stroke-width="2" points="225.0001,-262.4132 221.5,-252.4133 218.0001,-262.4133 225.0001,-262.4132"/>
</g>
<!-- 11 -->
<g id="node12" class="node">
<title>11</title>
<path fill="none" stroke="#68d856" stroke-width="2" d="M347,-540C347,-540 296,-540 296,-540 290,-540 284,-534 284,-528 284,-528 284,-516 284,-516 284,-510 290,-504 296,-504 296,-504 347,-504 347,-504 353,-504 359,-510 359,-516 359,-516 359,-528 359,-528 359,-534 353,-540 347,-540"/>
<text text-anchor="middle" x="321.5" y="-519.5" font-family="sans" font-size="10.00" fill="#000000">demultiplex</text>
</g>
<!-- 11&#45;&gt;8 -->
<g id="edge12" class="edge">
<title>11&#45;&gt;8</title>
<path fill="none" stroke="#c0c0c0" stroke-width="2" d="M321.5,-503.8314C321.5,-496.131 321.5,-486.9743 321.5,-478.4166"/>
<polygon fill="#c0c0c0" stroke="#c0c0c0" stroke-width="2" points="325.0001,-478.4132 321.5,-468.4133 318.0001,-478.4133 325.0001,-478.4132"/>
</g>
</g>
</svg>
