<?xml version="1.0" encoding="UTF-8" standalone="no"?>
<svg
   xmlns:dc="http://purl.org/dc/elements/1.1/"
   xmlns:cc="http://creativecommons.org/ns#"
   xmlns:rdf="http://www.w3.org/1999/02/22-rdf-syntax-ns#"
   xmlns:svg="http://www.w3.org/2000/svg"
   xmlns="http://www.w3.org/2000/svg"
   viewBox="0 0 389.33334 1114.6667"
   height="1114.6667"
   width="389.33334"
   xml:space="preserve"
   id="svg2"
   version="1.1"><metadata
     id="metadata8"><rdf:RDF><cc:Work
         rdf:about=""><dc:format>image/svg+xml</dc:format><dc:type
           rdf:resource="http://purl.org/dc/dcmitype/StillImage" /><dc:title></dc:title></cc:Work></rdf:RDF></metadata><defs
     id="defs6"><clipPath
       id="clipPath20"
       clipPathUnits="userSpaceOnUse"><path
         id="path18"
         d="M 0,836 H 291.5 V 0 H 0 Z" /></clipPath></defs><g
     transform="matrix(1.3333333,0,0,-1.3333333,0,1114.6667)"
     id="g10"><g
       id="g12" /><g
       id="g14"><g
         clip-path="url(#clipPath20)"
         id="g16"><path
           id="path22"
           style="fill:#ffffff;fill-opacity:1;fill-rule:nonzero;stroke:none"
           d="M 0,836 H 291.5 V 0 H 0 Z" /><path
           id="path24"
           style="fill:none;stroke:#d97657;stroke-width:2;stroke-linecap:butt;stroke-linejoin:round;stroke-miterlimit:10;stroke-dasharray:none;stroke-opacity:1"
           d="m 171,616 c 0,0 -59,0 -59,0 -6,0 -12,-6 -12,-12 0,0 0,-12 0,-12 0,-6 6,-12 12,-12 0,0 59,0 59,0 6,0 12,6 12,12 0,0 0,12 0,12 0,6 -6,12 -12,12" /><text
           id="text28"
           style="font-variant:normal;font-weight:normal;font-size:9.99975586px;font-family:'DejaVu Sans';-inkscape-font-specification:DejaVuSans;writing-mode:lr-tb;fill:#000000;fill-opacity:1;fill-rule:nonzero;stroke:none"
           transform="matrix(1,0,0,-1,108,595.5)"><tspan
             id="tspan26"
             y="0"
             x="0 9.7397623 15.739616 21.729469 27.729324 33.719177 39.719032 44.968903 50.958755 56.948612">mapped_bam</tspan></text>
<path
           id="path30"
           style="fill:none;stroke:#5773d9;stroke-width:2;stroke-linecap:butt;stroke-linejoin:round;stroke-miterlimit:10;stroke-dasharray:none;stroke-opacity:1"
           d="m 172,328 c 0,0 -61,0 -61,0 -6,0 -12,-6 -12,-12 0,0 0,-12 0,-12 0,-6 6,-12 12,-12 0,0 61,0 61,0 6,0 12,6 12,12 0,0 0,12 0,12 0,6 -6,12 -12,12" /><text
           id="text34"
           style="font-variant:normal;font-weight:normal;font-size:9.99975586px;font-family:'DejaVu Sans';-inkscape-font-specification:DejaVuSans;writing-mode:lr-tb;fill:#000000;fill-opacity:1;fill-rule:nonzero;stroke:none"
           transform="matrix(1,0,0,-1,107,307.5)"><tspan
             id="tspan32"
             y="0"
             x="0 5.239872 11.229726 20.969488 24.729397 30.71925 36.709103 38.959049 44.198921 49.448795 54.688667 60.67852 64.428429">samtools_sort</tspan></text>
<path
           id="path36"
           style="fill:none;stroke:#c0c0c0;stroke-width:2;stroke-linecap:butt;stroke-linejoin:round;stroke-miterlimit:10;stroke-dasharray:none;stroke-opacity:1"
           d="m 141.5,579.965 c 0,-47.676 0,-182.781 0,-241.336" /><path
           id="path38"
           style="fill:#c0c0c0;fill-opacity:1;fill-rule:nonzero;stroke:#c0c0c0;stroke-width:2;stroke-linecap:butt;stroke-linejoin:round;stroke-miterlimit:10;stroke-dasharray:none;stroke-opacity:1"
           d="m 145,338.305 -3.5,-10 -3.5,10 z" /><path
           id="path40"
           style="fill:none;stroke:#d95757;stroke-width:2;stroke-linecap:butt;stroke-linejoin:round;stroke-miterlimit:10;stroke-dasharray:none;stroke-opacity:1"
           d="m 199,832 c 0,0 -31,0 -31,0 -6,0 -12,-6 -12,-12 0,0 0,-12 0,-12 0,-6 6,-12 12,-12 0,0 31,0 31,0 6,0 12,6 12,12 0,0 0,12 0,12 0,6 -6,12 -12,12" /><text
           id="text44"
           style="font-variant:normal;font-weight:normal;font-size:9.99975586px;font-family:'DejaVu Sans';-inkscape-font-specification:DejaVuSans;writing-mode:lr-tb;fill:#000000;fill-opacity:1;fill-rule:nonzero;stroke:none"
           transform="matrix(1,0,0,-1,164,811.5)"><tspan
             id="tspan42"
             y="0"
             x="0 5.9898539 12.72969 18.729544 23.979414 29.969269 32.209213">bwa_aln</tspan></text>
<path
           id="path46"
           style="fill:none;stroke:#57d9c1;stroke-width:2;stroke-linecap:butt;stroke-linejoin:round;stroke-miterlimit:10;stroke-dasharray:none;stroke-opacity:1"
           d="m 208,760 c 0,0 -49,0 -49,0 -6,0 -12,-6 -12,-12 0,0 0,-12 0,-12 0,-6 6,-12 12,-12 0,0 49,0 49,0 6,0 12,6 12,12 0,0 0,12 0,12 0,6 -6,12 -12,12" /><text
           id="text50"
           style="font-variant:normal;font-weight:normal;font-size:9.99975586px;font-family:'DejaVu Sans';-inkscape-font-specification:DejaVuSans;writing-mode:lr-tb;fill:#000000;fill-opacity:1;fill-rule:nonzero;stroke:none"
           transform="matrix(1,0,0,-1,155,739.5)"><tspan
             id="tspan48"
             y="0"
             x="0 5.9898539 12.72969 18.729544 23.979414 29.219288 35.209141 44.948902 50.198776">bwa_samse</tspan></text>
<path
           id="path52"
           style="fill:none;stroke:#c0c0c0;stroke-width:2;stroke-linecap:butt;stroke-linejoin:round;stroke-miterlimit:10;stroke-dasharray:none;stroke-opacity:1"
           d="m 183.5,795.695 c 0,-7.711 0,-16.984 0,-25.582" /><path
           id="path54"
           style="fill:#c0c0c0;fill-opacity:1;fill-rule:nonzero;stroke:#c0c0c0;stroke-width:2;stroke-linecap:butt;stroke-linejoin:round;stroke-miterlimit:10;stroke-dasharray:none;stroke-opacity:1"
           d="m 187,770.105 -3.5,-10 -3.5,10 z" /><path
           id="path56"
           style="fill:none;stroke:#57b2d9;stroke-width:2;stroke-linecap:butt;stroke-linejoin:round;stroke-miterlimit:10;stroke-dasharray:none;stroke-opacity:1"
           d="m 101,400 c 0,0 -85,0 -85,0 -6,0 -12,-6 -12,-12 0,0 0,-12 0,-12 0,-6 6,-12 12,-12 0,0 85,0 85,0 6,0 12,6 12,12 0,0 0,12 0,12 0,6 -6,12 -12,12" /><text
           id="text60"
           style="font-variant:normal;font-weight:normal;font-size:9.99975586px;font-family:'DejaVu Sans';-inkscape-font-specification:DejaVuSans;writing-mode:lr-tb;fill:#000000;fill-opacity:1;fill-rule:nonzero;stroke:none"
           transform="matrix(1,0,0,-1,12,379.5)"><tspan
             id="tspan58"
             y="0"
             x="0 5.239872 11.229726 20.969488 26.229361 29.979269 35.969124 41.218994 47.218849 53.208702 62.948463 68.208336 70.44828 76.438133 82.427986 88.427841">sam_to_bam_input</tspan></text>
<path
           id="path62"
           style="fill:none;stroke:#c0c0c0;stroke-width:2;stroke-linecap:butt;stroke-linejoin:round;stroke-miterlimit:10;stroke-dasharray:none;stroke-opacity:1"
           d="m 79.016,363.695 c 10.355,-8.73 23.07,-19.453 34.324,-28.945" /><path
           id="path64"
           style="fill:#c0c0c0;fill-opacity:1;fill-rule:nonzero;stroke:#c0c0c0;stroke-width:2;stroke-linecap:butt;stroke-linejoin:round;stroke-miterlimit:10;stroke-dasharray:none;stroke-opacity:1"
           d="m 115.832,337.227 5.387,-9.122 -9.903,3.77 z" /><path
           id="path66"
           style="fill:none;stroke:#d9b457;stroke-width:2;stroke-linecap:butt;stroke-linejoin:round;stroke-miterlimit:10;stroke-dasharray:none;stroke-opacity:1"
           d="m 242,544 c 0,0 -53,0 -53,0 -6,0 -12,-6 -12,-12 0,0 0,-12 0,-12 0,-6 6,-12 12,-12 0,0 53,0 53,0 6,0 12,6 12,12 0,0 0,12 0,12 0,6 -6,12 -12,12" /><text
           id="text70"
           style="font-variant:normal;font-weight:normal;font-size:9.99975586px;font-family:'DejaVu Sans';-inkscape-font-specification:DejaVuSans;writing-mode:lr-tb;fill:#000000;fill-opacity:1;fill-rule:nonzero;stroke:none"
           transform="matrix(1,0,0,-1,185,523.5)"><tspan
             id="tspan68"
             y="0"
             x="0 5.9898539 12.72969 18.729544 23.979414 29.969269 32.209213 38.199066 43.44894 49.448795 54.688667">bwa_aln_exp</tspan></text>
<path
           id="path72"
           style="fill:none;stroke:#d99557;stroke-width:2;stroke-linecap:butt;stroke-linejoin:round;stroke-miterlimit:10;stroke-dasharray:none;stroke-opacity:1"
           d="m 258,472 c 0,0 -71,0 -71,0 -6,0 -12,-6 -12,-12 0,0 0,-12 0,-12 0,-6 6,-12 12,-12 0,0 71,0 71,0 6,0 12,6 12,12 0,0 0,12 0,12 0,6 -6,12 -12,12" /><text
           id="text76"
           style="font-variant:normal;font-weight:normal;font-size:9.99975586px;font-family:'DejaVu Sans';-inkscape-font-specification:DejaVuSans;writing-mode:lr-tb;fill:#000000;fill-opacity:1;fill-rule:nonzero;stroke:none"
           transform="matrix(1,0,0,-1,183,451.5)"><tspan
             id="tspan74"
             y="0"
             x="0 5.9898539 12.72969 18.729544 23.979414 29.219288 35.209141 44.948902 50.198776 56.198627 61.448502 67.438354 72.688225">bwa_samse_exp</tspan></text>
<path
           id="path78"
           style="fill:none;stroke:#c0c0c0;stroke-width:2;stroke-linecap:butt;stroke-linejoin:round;stroke-miterlimit:10;stroke-dasharray:none;stroke-opacity:1"
           d="m 217.23,507.695 c 0.77,-7.711 1.7,-16.984 2.559,-25.582" /><path
           id="path80"
           style="fill:#c0c0c0;fill-opacity:1;fill-rule:nonzero;stroke:#c0c0c0;stroke-width:2;stroke-linecap:butt;stroke-linejoin:round;stroke-miterlimit:10;stroke-dasharray:none;stroke-opacity:1"
           d="m 223.277,482.402 -2.488,-10.297 -4.477,9.602 z" /><path
           id="path82"
           style="fill:none;stroke:#d9d457;stroke-width:2;stroke-linecap:butt;stroke-linejoin:round;stroke-miterlimit:10;stroke-dasharray:none;stroke-opacity:1"
           d="m 263.5,400 c 0,0 -82,0 -82,0 -6,0 -12,-6 -12,-12 0,0 0,-12 0,-12 0,-6 6,-12 12,-12 0,0 82,0 82,0 6,0 12,6 12,12 0,0 0,12 0,12 0,6 -6,12 -12,12" /><text
           id="text86"
           style="font-variant:normal;font-weight:normal;font-size:9.99975586px;font-family:'DejaVu Sans';-inkscape-font-specification:DejaVuSans;writing-mode:lr-tb;fill:#000000;fill-opacity:1;fill-rule:nonzero;stroke:none"
           transform="matrix(1,0,0,-1,177.5,379.5)"><tspan
             id="tspan84"
             y="0"
             x="0 9.7397623 15.739616 21.729469 27.729324 33.719177 39.719032 44.968903 50.958755 56.948612 66.68837 71.948242 77.948097 83.187973">mapped_bam_exp</tspan></text>
<path
           id="path88"
           style="fill:none;stroke:#c0c0c0;stroke-width:2;stroke-linecap:butt;stroke-linejoin:round;stroke-miterlimit:10;stroke-dasharray:none;stroke-opacity:1"
           d="m 202.477,363.695 c -10.102,-8.73 -22.512,-19.453 -33.493,-28.945" /><path
           id="path90"
           style="fill:#c0c0c0;fill-opacity:1;fill-rule:nonzero;stroke:#c0c0c0;stroke-width:2;stroke-linecap:butt;stroke-linejoin:round;stroke-miterlimit:10;stroke-dasharray:none;stroke-opacity:1"
           d="m 171.148,331.996 -9.855,-3.891 5.277,9.188 z" /><path
           id="path92"
           style="fill:none;stroke:#57d983;stroke-width:2;stroke-linecap:butt;stroke-linejoin:round;stroke-miterlimit:10;stroke-dasharray:none;stroke-opacity:1"
           d="m 117,112 c 0,0 -99,0 -99,0 -6,0 -12,-6 -12,-12 0,0 0,-12 0,-12 0,-6 6,-12 12,-12 0,0 99,0 99,0 6,0 12,6 12,12 0,0 0,12 0,12 0,6 -6,12 -12,12" /><text
           id="text96"
           style="font-variant:normal;font-weight:normal;font-size:9.99975586px;font-family:'DejaVu Sans';-inkscape-font-specification:DejaVuSans;writing-mode:lr-tb;fill:#000000;fill-opacity:1;fill-rule:nonzero;stroke:none"
           transform="matrix(1,0,0,-1,14,91.5)"><tspan
             id="tspan94"
             y="0"
             x="0 5.9898539 11.979708 21.719471 28.479305 34.469158 39.719032 45.708885 49.458794 55.448647 61.448502 67.438354 73.43821 79.428062 86.907883 92.917732 96.667641">bamCoveragenoNorm</tspan></text>
<path
           id="path98"
           style="fill:none;stroke:#57d1d9;stroke-width:2;stroke-linecap:butt;stroke-linejoin:round;stroke-miterlimit:10;stroke-dasharray:none;stroke-opacity:1"
           d="m 157.5,40 c 0,0 -30,0 -30,0 -6,0 -12,-6 -12,-12 0,0 0,-12 0,-12 0,-6 6,-12 12,-12 0,0 30,0 30,0 6,0 12,6 12,12 0,0 0,12 0,12 0,6 -6,12 -12,12" /><text
           id="text102"
           style="font-variant:normal;font-weight:normal;font-size:9.99975586px;font-family:'DejaVu Sans';-inkscape-font-specification:DejaVuSans;writing-mode:lr-tb;fill:#000000;fill-opacity:1;fill-rule:nonzero;stroke:none"
           transform="matrix(1,0,0,-1,137,19.5)"><tspan
             id="tspan100"
             y="0"
             x="0 5.9898539 8.2297993">all</tspan></text>
<path
           id="path104"
           style="fill:none;stroke:#c0c0c0;stroke-width:2;stroke-linecap:butt;stroke-linejoin:round;stroke-miterlimit:10;stroke-dasharray:none;stroke-opacity:1"
           d="m 86.039,75.695 c 9.266,-8.644 20.625,-19.246 30.719,-28.668" /><path
           id="path106"
           style="fill:#c0c0c0;fill-opacity:1;fill-rule:nonzero;stroke:#c0c0c0;stroke-width:2;stroke-linecap:butt;stroke-linejoin:round;stroke-miterlimit:10;stroke-dasharray:none;stroke-opacity:1"
           d="m 119.25,49.484 4.926,-9.379 -9.699,4.262 z" /><path
           id="path108"
           style="fill:none;stroke:#bfd957;stroke-width:2;stroke-linecap:butt;stroke-linejoin:round;stroke-miterlimit:10;stroke-dasharray:none;stroke-opacity:1"
           d="m 175.5,184 c 0,0 -68,0 -68,0 -6,0 -12,-6 -12,-12 0,0 0,-12 0,-12 0,-6 6,-12 12,-12 0,0 68,0 68,0 6,0 12,6 12,12 0,0 0,12 0,12 0,6 -6,12 -12,12" /><text
           id="text112"
           style="font-variant:normal;font-weight:normal;font-size:9.99975586px;font-family:'DejaVu Sans';-inkscape-font-specification:DejaVuSans;writing-mode:lr-tb;fill:#000000;fill-opacity:1;fill-rule:nonzero;stroke:none"
           transform="matrix(1,0,0,-1,103.5,163.5)"><tspan
             id="tspan110"
             y="0"
             x="0 5.239872 11.229726 20.969488 24.729397 30.71925 36.709103 38.959049 44.198921 49.448795 51.68874 57.678593 63.668446 69.668297">samtools_index</tspan></text>
<path
           id="path114"
           style="fill:none;stroke:#c0c0c0;stroke-width:2;stroke-linecap:butt;stroke-linejoin:round;stroke-miterlimit:10;stroke-dasharray:none;stroke-opacity:1"
           d="m 123.207,147.695 c -9.141,-8.644 -20.348,-19.246 -30.309,-28.668" /><path
           id="path116"
           style="fill:#c0c0c0;fill-opacity:1;fill-rule:nonzero;stroke:#c0c0c0;stroke-width:2;stroke-linecap:butt;stroke-linejoin:round;stroke-miterlimit:10;stroke-dasharray:none;stroke-opacity:1"
           d="m 95.25,116.434 -9.668,-4.329 4.859,9.415 z" /><path
           id="path118"
           style="fill:none;stroke:#a0d957;stroke-width:2;stroke-linecap:butt;stroke-linejoin:round;stroke-miterlimit:10;stroke-dasharray:none;stroke-opacity:1"
           d="m 97.5,472 c 0,0 -78,0 -78,0 -6,0 -12,-6 -12,-12 0,0 0,-12 0,-12 0,-6 6,-12 12,-12 0,0 78,0 78,0 6,0 12,6 12,12 0,0 0,12 0,12 0,6 -6,12 -12,12" /><text
           id="text122"
           style="font-variant:normal;font-weight:normal;font-size:9.99975586px;font-family:'DejaVu Sans';-inkscape-font-specification:DejaVuSans;writing-mode:lr-tb;fill:#000000;fill-opacity:1;fill-rule:nonzero;stroke:none"
           transform="matrix(1,0,0,-1,15.5,451.5)"><tspan
             id="tspan120"
             y="0"
             x="0 5.9898539 12.72969 18.729544 23.979414 29.219288 35.209141 44.948902 50.198776 56.198627 61.448502 63.688446 69.678299 75.668152 81.658005">bwa_samse_input</tspan></text>
<path
           id="path124"
           style="fill:none;stroke:#c0c0c0;stroke-width:2;stroke-linecap:butt;stroke-linejoin:round;stroke-miterlimit:10;stroke-dasharray:none;stroke-opacity:1"
           d="m 58.5,435.695 c 0,-7.711 0,-16.984 0,-25.582" /><path
           id="path126"
           style="fill:#c0c0c0;fill-opacity:1;fill-rule:nonzero;stroke:#c0c0c0;stroke-width:2;stroke-linecap:butt;stroke-linejoin:round;stroke-miterlimit:10;stroke-dasharray:none;stroke-opacity:1"
           d="m 62,410.105 -3.5,-10 -3.5,10 z" /><path
           id="path128"
           style="fill:none;stroke:#88d957;stroke-width:2;stroke-linecap:butt;stroke-linejoin:round;stroke-miterlimit:10;stroke-dasharray:none;stroke-opacity:1"
           d="m 88.5,544 c 0,0 -60,0 -60,0 -6,0 -12,-6 -12,-12 0,0 0,-12 0,-12 0,-6 6,-12 12,-12 0,0 60,0 60,0 6,0 12,6 12,12 0,0 0,12 0,12 0,6 -6,12 -12,12" /><text
           id="text132"
           style="font-variant:normal;font-weight:normal;font-size:9.99975586px;font-family:'DejaVu Sans';-inkscape-font-specification:DejaVuSans;writing-mode:lr-tb;fill:#000000;fill-opacity:1;fill-rule:nonzero;stroke:none"
           transform="matrix(1,0,0,-1,24.5,523.5)"><tspan
             id="tspan130"
             y="0"
             x="0 5.9898539 12.72969 18.729544 23.979414 29.969269 32.209213 38.199066 43.44894 45.688885 51.68874 57.678593 63.668446">bwa_aln_input</tspan></text>
<path
           id="path134"
           style="fill:none;stroke:#c0c0c0;stroke-width:2;stroke-linecap:butt;stroke-linejoin:round;stroke-miterlimit:10;stroke-dasharray:none;stroke-opacity:1"
           d="m 58.5,507.695 c 0,-7.711 0,-16.984 0,-25.582" /><path
           id="path136"
           style="fill:#c0c0c0;fill-opacity:1;fill-rule:nonzero;stroke:#c0c0c0;stroke-width:2;stroke-linecap:butt;stroke-linejoin:round;stroke-miterlimit:10;stroke-dasharray:none;stroke-opacity:1"
           d="m 62,482.105 -3.5,-10 -3.5,10 z" /><path
           id="path138"
           style="fill:none;stroke:#69d957;stroke-width:2;stroke-linecap:butt;stroke-linejoin:round;stroke-miterlimit:10;stroke-dasharray:none;stroke-opacity:1"
           d="m 257.5,616 c 0,0 -44,0 -44,0 -6,0 -12,-6 -12,-12 0,0 0,-12 0,-12 0,-6 6,-12 12,-12 0,0 44,0 44,0 6,0 12,6 12,12 0,0 0,12 0,12 0,6 -6,12 -12,12" /><text
           id="text142"
           style="font-variant:normal;font-weight:normal;font-size:9.99975586px;font-family:'DejaVu Sans';-inkscape-font-specification:DejaVuSans;writing-mode:lr-tb;fill:#000000;fill-opacity:1;fill-rule:nonzero;stroke:none"
           transform="matrix(1,0,0,-1,209.5,595.5)"><tspan
             id="tspan140"
             y="0"
             x="0 5.9898539 11.979708 21.719471 27.729324 30.72925 36.719105 41.958977 45.708885">bam2fastq</tspan></text>
<path
           id="path144"
           style="fill:none;stroke:#c0c0c0;stroke-width:2;stroke-linecap:butt;stroke-linejoin:round;stroke-miterlimit:10;stroke-dasharray:none;stroke-opacity:1"
           d="m 230.555,579.695 c -2.227,-7.797 -4.91,-17.187 -7.391,-25.867" /><path
           id="path146"
           style="fill:#c0c0c0;fill-opacity:1;fill-rule:nonzero;stroke:#c0c0c0;stroke-width:2;stroke-linecap:butt;stroke-linejoin:round;stroke-miterlimit:10;stroke-dasharray:none;stroke-opacity:1"
           d="m 226.5,552.758 -6.113,-8.653 -0.617,10.575 z" /><path
           id="path148"
           style="fill:none;stroke:#c0c0c0;stroke-width:2;stroke-linecap:butt;stroke-linejoin:round;stroke-miterlimit:10;stroke-dasharray:none;stroke-opacity:1"
           d="m 247.109,579.848 c 10.68,-17.993 23.7,-47.043 15.391,-71.848 -3.352,-10 -9.418,-19.625 -15.828,-27.863" /><path
           id="path150"
           style="fill:#c0c0c0;fill-opacity:1;fill-rule:nonzero;stroke:#c0c0c0;stroke-width:2;stroke-linecap:butt;stroke-linejoin:round;stroke-miterlimit:10;stroke-dasharray:none;stroke-opacity:1"
           d="m 249.32,477.848 -9.086,-5.446 3.704,9.922 z" /><path
           id="path152"
           style="fill:none;stroke:#57d964;stroke-width:2;stroke-linecap:butt;stroke-linejoin:round;stroke-miterlimit:10;stroke-dasharray:none;stroke-opacity:1"
           d="m 275.5,112 c 0,0 -116,0 -116,0 -6,0 -12,-6 -12,-12 0,0 0,-12 0,-12 0,-6 6,-12 12,-12 0,0 116,0 116,0 6,0 12,6 12,12 0,0 0,12 0,12 0,6 -6,12 -12,12" /><text
           id="text156"
           style="font-variant:normal;font-weight:normal;font-size:9.99975586px;font-family:'DejaVu Sans';-inkscape-font-specification:DejaVuSans;writing-mode:lr-tb;fill:#000000;fill-opacity:1;fill-rule:nonzero;stroke:none"
           transform="matrix(1,0,0,-1,155.5,91.5)"><tspan
             id="tspan154"
             y="0"
             x="0 5.9898539 11.979708 21.719471 28.479305 34.469158 39.719032 45.708885 49.458794 55.448647 61.448502 67.438354 74.188187 79.428062 85.417915 87.65786 93.657715 98.157608 104.14746 109.38733 113.13724 119.12709">bamCoverageScaleFactor</tspan></text>
<path
           id="path158"
           style="fill:none;stroke:#c0c0c0;stroke-width:2;stroke-linecap:butt;stroke-linejoin:round;stroke-miterlimit:10;stroke-dasharray:none;stroke-opacity:1"
           d="M 198.961,75.695 C 189.695,67.051 178.336,56.449 168.242,47.027" /><path
           id="path160"
           style="fill:#c0c0c0;fill-opacity:1;fill-rule:nonzero;stroke:#c0c0c0;stroke-width:2;stroke-linecap:butt;stroke-linejoin:round;stroke-miterlimit:10;stroke-dasharray:none;stroke-opacity:1"
           d="m 170.523,44.367 -9.699,-4.262 4.926,9.379 z" /><path
           id="path162"
           style="fill:none;stroke:#c0c0c0;stroke-width:2;stroke-linecap:butt;stroke-linejoin:round;stroke-miterlimit:10;stroke-dasharray:none;stroke-opacity:1"
           d="m 222.5,435.695 c 0,-7.711 0,-16.984 0,-25.582" /><path
           id="path164"
           style="fill:#c0c0c0;fill-opacity:1;fill-rule:nonzero;stroke:#c0c0c0;stroke-width:2;stroke-linecap:butt;stroke-linejoin:round;stroke-miterlimit:10;stroke-dasharray:none;stroke-opacity:1"
           d="m 226,410.105 -3.5,-10 -3.5,10 z" /><path
           id="path166"
           style="fill:none;stroke:#57d9a2;stroke-width:2;stroke-linecap:butt;stroke-linejoin:round;stroke-miterlimit:10;stroke-dasharray:none;stroke-opacity:1"
           d="m 266,688 c 0,0 -71,0 -71,0 -6,0 -12,-6 -12,-12 0,0 0,-12 0,-12 0,-6 6,-12 12,-12 0,0 71,0 71,0 6,0 12,6 12,12 0,0 0,12 0,12 0,6 -6,12 -12,12" /><text
           id="text170"
           style="font-variant:normal;font-weight:normal;font-size:9.99975586px;font-family:'DejaVu Sans';-inkscape-font-specification:DejaVuSans;writing-mode:lr-tb;fill:#000000;fill-opacity:1;fill-rule:nonzero;stroke:none"
           transform="matrix(1,0,0,-1,191,667.5)"><tspan
             id="tspan168"
             y="0"
             x="0 5.9898539 11.979708 21.719471 27.729324 33.719177 39.70903 45.708885 51.698738 56.948612 62.938465 68.938316">unmapped_bam</tspan></text>
<path
           id="path172"
           style="fill:none;stroke:#c0c0c0;stroke-width:2;stroke-linecap:butt;stroke-linejoin:round;stroke-miterlimit:10;stroke-dasharray:none;stroke-opacity:1"
           d="m 231.734,651.695 c 0.551,-7.711 1.215,-16.984 1.828,-25.582" /><path
           id="path174"
           style="fill:#c0c0c0;fill-opacity:1;fill-rule:nonzero;stroke:#c0c0c0;stroke-width:2;stroke-linecap:butt;stroke-linejoin:round;stroke-miterlimit:10;stroke-dasharray:none;stroke-opacity:1"
           d="m 237.059,626.328 -2.782,-10.223 -4.203,9.723 z" /><path
           id="path176"
           style="fill:none;stroke:#c0c0c0;stroke-width:2;stroke-linecap:butt;stroke-linejoin:round;stroke-miterlimit:10;stroke-dasharray:none;stroke-opacity:1"
           d="M 178.434,723.871 C 171.246,699.562 158.008,654.82 149.488,626.012" /><path
           id="path178"
           style="fill:#c0c0c0;fill-opacity:1;fill-rule:nonzero;stroke:#c0c0c0;stroke-width:2;stroke-linecap:butt;stroke-linejoin:round;stroke-miterlimit:10;stroke-dasharray:none;stroke-opacity:1"
           d="m 152.777,624.785 -6.191,-8.597 -0.524,10.582 z" /><path
           id="path180"
           style="fill:none;stroke:#c0c0c0;stroke-width:2;stroke-linecap:butt;stroke-linejoin:round;stroke-miterlimit:10;stroke-dasharray:none;stroke-opacity:1"
           d="m 195.117,723.695 c 5.524,-8.222 12.231,-18.211 18.317,-27.273" /><path
           id="path182"
           style="fill:#c0c0c0;fill-opacity:1;fill-rule:nonzero;stroke:#c0c0c0;stroke-width:2;stroke-linecap:butt;stroke-linejoin:round;stroke-miterlimit:10;stroke-dasharray:none;stroke-opacity:1"
           d="m 216.348,698.359 2.668,-10.254 -8.481,6.352 z" /><path
           id="path184"
           style="fill:none;stroke:#5793d9;stroke-width:2;stroke-linecap:butt;stroke-linejoin:round;stroke-miterlimit:10;stroke-dasharray:none;stroke-opacity:1"
           d="m 184,256 c 0,0 -85,0 -85,0 -6,0 -12,-6 -12,-12 0,0 0,-12 0,-12 0,-6 6,-12 12,-12 0,0 85,0 85,0 6,0 12,6 12,12 0,0 0,12 0,12 0,6 -6,12 -12,12" /><text
           id="text188"
           style="font-variant:normal;font-weight:normal;font-size:9.99975586px;font-family:'DejaVu Sans';-inkscape-font-specification:DejaVuSans;writing-mode:lr-tb;fill:#000000;fill-opacity:1;fill-rule:nonzero;stroke:none"
           transform="matrix(1,0,0,-1,95,235.5)"><tspan
             id="tspan186"
             y="0"
             x="0 5.239872 11.229726 20.969488 24.729397 30.71925 36.709103 38.959049 44.198921 49.448795 53.198704 62.938465 68.938316 74.928169 80.918022 86.907883">samtools_rmpdups</tspan></text>
<path
           id="path190"
           style="fill:none;stroke:#c0c0c0;stroke-width:2;stroke-linecap:butt;stroke-linejoin:round;stroke-miterlimit:10;stroke-dasharray:none;stroke-opacity:1"
           d="M 117.969,219.797 C 106.797,210.426 94.227,197.91 86.5,184 75.918,164.949 71.223,140.594 69.145,122.176" /><path
           id="path192"
           style="fill:#c0c0c0;fill-opacity:1;fill-rule:nonzero;stroke:#c0c0c0;stroke-width:2;stroke-linecap:butt;stroke-linejoin:round;stroke-miterlimit:10;stroke-dasharray:none;stroke-opacity:1"
           d="m 72.617,121.734 -4.422,-9.629 -2.547,10.282 z" /><path
           id="path194"
           style="fill:none;stroke:#c0c0c0;stroke-width:2;stroke-linecap:butt;stroke-linejoin:round;stroke-miterlimit:10;stroke-dasharray:none;stroke-opacity:1"
           d="m 141.5,219.695 c 0,-7.711 0,-16.984 0,-25.582" /><path
           id="path196"
           style="fill:#c0c0c0;fill-opacity:1;fill-rule:nonzero;stroke:#c0c0c0;stroke-width:2;stroke-linecap:butt;stroke-linejoin:round;stroke-miterlimit:10;stroke-dasharray:none;stroke-opacity:1"
           d="m 145,194.105 -3.5,-10 -3.5,10 z" /><path
           id="path198"
           style="fill:none;stroke:#c0c0c0;stroke-width:2;stroke-linecap:butt;stroke-linejoin:round;stroke-miterlimit:10;stroke-dasharray:none;stroke-opacity:1"
           d="m 164.629,219.961 c 11.207,-9.418 23.93,-22.02 31.871,-35.961 10.84,-19.027 16.094,-43.387 18.637,-61.809" /><path
           id="path200"
           style="fill:#c0c0c0;fill-opacity:1;fill-rule:nonzero;stroke:#c0c0c0;stroke-width:2;stroke-linecap:butt;stroke-linejoin:round;stroke-miterlimit:10;stroke-dasharray:none;stroke-opacity:1"
           d="m 218.629,122.461 -2.289,-10.348 -4.66,9.516 z" /><path
           id="path202"
           style="fill:none;stroke:#c0c0c0;stroke-width:2;stroke-linecap:butt;stroke-linejoin:round;stroke-miterlimit:10;stroke-dasharray:none;stroke-opacity:1"
           d="m 141.5,291.695 c 0,-7.711 0,-16.984 0,-25.582" /><path
           id="path204"
           style="fill:#c0c0c0;fill-opacity:1;fill-rule:nonzero;stroke:#c0c0c0;stroke-width:2;stroke-linecap:butt;stroke-linejoin:round;stroke-miterlimit:10;stroke-dasharray:none;stroke-opacity:1"
           d="m 145,266.105 -3.5,-10 -3.5,10 z" /></g></g></g></svg>